HIERARCHY
ROOT root
{
	OFFSET 0.000000 0.000000 0.000000
	CHANNELS 6 Xposition Yposition Zposition Zrotation Yrotation Xrotation
	JOINT lhip
	{
		OFFSET 0.058581 -0.082280 -0.017664
		CHANNELS 3 Zrotation Yrotation Xrotation
		JOINT lknee
		{
			OFFSET 0.043451 -0.386469 0.008037
			CHANNELS 3 Zrotation Yrotation Xrotation
			JOINT lankle
			{
				OFFSET -0.014790 -0.426874 -0.037428
				CHANNELS 3 Zrotation Yrotation Xrotation
				JOINT ltoe
				{
					OFFSET 0.041054 -0.060286 0.122042
					CHANNELS 3 Zrotation Yrotation Xrotation
					End Site
					{
						OFFSET 0.000000 0.000000 0.000000
					}
				}
			}
		}
	}
	JOINT rhip
	{
		OFFSET -0.060310 -0.090513 -0.013543
		CHANNELS 3 Zrotation Yrotation Xrotation
		JOINT rknee
		{
			OFFSET -0.043257 -0.383688 -0.004843
			CHANNELS 3 Zrotation Yrotation Xrotation
			JOINT rankle
			{
				OFFSET 0.019056 -0.420046 -0.034562
				CHANNELS 3 Zrotation Yrotation Xrotation
				JOINT rtoe
				{
					OFFSET -0.034840 -0.062106 0.130323
					CHANNELS 3 Zrotation Yrotation Xrotation
					End Site
					{
						OFFSET 0.000000 0.000000 0.000000
					}
				}
			}
		}
	}
	JOINT lowerback
	{
		OFFSET 0.004439 0.124404 -0.038385
		CHANNELS 3 Zrotation Yrotation Xrotation
		JOINT upperback
		{
			OFFSET 0.004488 0.137956 0.026820
			CHANNELS 3 Zrotation Yrotation Xrotation
			JOINT chest
			{
				OFFSET -0.002265 0.056032 0.002855
				CHANNELS 3 Zrotation Yrotation Xrotation
				JOINT lowerneck
				{
					OFFSET -0.013390 0.211636 -0.033468
					CHANNELS 3 Zrotation Yrotation Xrotation
					JOINT upperneck
					{
						OFFSET 0.010113 0.088937 0.050410
						CHANNELS 3 Zrotation Yrotation Xrotation
						End Site
						{
							OFFSET 0.000000 0.000000 0.000000
						}
					}
				}
				JOINT lclavicle
				{
					OFFSET 0.071702 0.114000 -0.018898
					CHANNELS 3 Zrotation Yrotation Xrotation
					JOINT lshoulder
					{
						OFFSET 0.122921 0.045205 -0.019046
						CHANNELS 3 Zrotation Yrotation Xrotation
						JOINT lelbow
						{
							OFFSET 0.255332 -0.015649 -0.022946
							CHANNELS 3 Zrotation Yrotation Xrotation
							JOINT lwrist
							{
								OFFSET 0.265709 0.012698 -0.007375
								CHANNELS 3 Zrotation Yrotation Xrotation
								End Site
								{
									OFFSET 0.000000 0.000000 0.000000
								}
							}
						}
					}
				}
				JOINT rclavicle
				{
					OFFSET -0.082954 0.112472 -0.023707
					CHANNELS 3 Zrotation Yrotation Xrotation
					JOINT rshoulder
					{
						OFFSET -0.113228 0.046853 -0.008472
						CHANNELS 3 Zrotation Yrotation Xrotation
						JOINT relbow
						{
							OFFSET -0.260127 -0.014369 -0.031269
							CHANNELS 3 Zrotation Yrotation Xrotation
							JOINT rwrist
							{
								OFFSET -0.269108 0.006794 -0.006027
								CHANNELS 3 Zrotation Yrotation Xrotation
								End Site
								{
									OFFSET 0.000000 0.000000 0.000000
								}
							}
						}
					}
				}
			}
		}
	}
}
MOTION
Frames: 5
Frame Time: 0.033333
-1.365277 0.319342 0.996533 85.359297 -3.787401 87.797924 -8.066859 -4.443748 -6.544831 -3.294992 -4.093349 3.113352 9.044133 10.856839 -2.402482 0.000000 -0.000000 0.000000 -6.664217 -2.037192 -1.648933 -2.122050 -0.339844 56.773161 1.958032 -11.923591 5.939561 0.000000 -0.000000 0.000000 -4.541660 6.692805 9.307392 0.671235 3.625642 -3.793821 -0.125378 -2.333027 3.278233 -0.480843 3.751938 -4.820368 -7.053914 2.524539 9.495669 -25.182349 7.071338 -0.019901 -56.011187 -5.992305 8.664186 9.767581 -29.275251 6.751578 -7.506799 -2.490612 -8.544848 27.689641 -0.343495 -1.407507 51.735920 14.147570 11.855544 -22.593031 18.215262 -21.231209 3.560297 4.289141 -8.037647 
-1.339872 0.321631 0.997889 87.298779 -3.495691 86.838987 -8.639230 -4.151453 -4.260427 -3.247564 -6.436125 3.989157 9.372832 11.152322 -3.624661 0.000000 -0.000000 0.000000 -5.821994 -1.962665 -4.296433 -2.431204 -1.438450 59.526839 2.137352 -12.329211 1.106321 0.000000 -0.000000 0.000000 -4.305366 5.581065 10.242542 0.879302 3.044040 -3.568957 -0.258799 -2.670801 3.606593 -0.213359 3.897096 -5.138406 -7.044943 1.728888 9.156611 -24.981846 6.429103 -0.306846 -55.280897 -6.615849 8.764867 9.728824 -30.423061 6.344252 -7.008158 -2.226796 -8.615240 28.290792 -0.624660 -1.461933 52.310834 12.495448 11.551349 -22.519425 17.627712 -21.141300 4.194848 3.955098 -8.242134 
-1.314692 0.323049 0.998971 88.915433 -3.191488 85.953237 -8.979633 -3.673721 -1.887339 -3.268222 -8.631667 4.737275 9.526974 11.414359 -5.174060 0.000000 -0.000000 0.000000 -4.960362 -0.938014 -7.042805 -1.551892 -2.132449 60.554152 3.087949 -12.173374 -4.685249 0.000000 -0.000000 0.000000 -4.294287 4.434506 10.909090 1.144197 2.814350 -3.387930 -0.279538 -2.999202 3.946241 0.076495 4.528408 -5.029794 -7.266724 0.930082 9.150500 -24.642566 6.038542 -0.345359 -54.858200 -7.334151 8.908414 10.192496 -31.760313 5.628684 -6.492626 -2.291702 -8.625533 28.737781 -0.985614 -1.366065 53.004855 10.901512 11.362857 -22.150804 16.722169 -20.487409 4.635266 3.320660 -8.307411 
-1.290555 0.324474 0.999959 90.307891 -2.906390 85.065155 -9.237333 -3.292861 0.626560 -3.198464 -10.863911 5.213504 9.743474 12.034297 -6.810687 0.000000 -0.000000 0.000000 -4.433662 0.050101 -9.676303 -0.896219 -2.497190 59.592904 3.779142 -12.070877 -8.029835 0.000000 -0.000000 0.000000 -4.200657 3.179113 11.792348 1.203314 2.665988 -3.385453 -0.372820 -3.144333 4.473950 0.174643 5.592441 -5.457593 -7.473623 0.602231 9.079948 -24.417360 6.149777 -0.973899 -54.363831 -8.284745 9.057764 10.486565 -32.893215 4.947130 -5.857898 -2.287849 -8.385523 29.441181 -1.538303 -1.629761 53.646889 9.563301 11.470111 -21.556509 15.291087 -20.096551 4.922930 2.902883 -8.185123 
-1.267379 0.325339 1.000319 91.487556 -2.426736 84.357504 -8.991101 -2.911686 3.013769 -3.176460 -12.540243 5.166026 9.644255 12.502090 -7.800944 0.000000 -0.000000 0.000000 -3.996583 0.888553 -12.502360 -0.441274 -2.460259 57.425029 4.638720 -11.545067 -11.590318 0.000000 -0.000000 0.000000 -3.962303 2.304250 12.586196 1.413966 2.662980 -3.204492 -0.404701 -3.525746 4.808159 0.114130 6.305226 -5.689081 -7.470802 0.137509 9.129996 -24.228588 6.208613 -0.921788 -54.031957 -9.355508 9.257453 11.054679 -34.413291 3.911327 -5.098144 -2.433365 -8.816935 29.901280 -2.115868 -1.785236 54.234757 8.351946 11.494257 -20.842301 13.573254 -19.529161 5.386046 2.271368 -8.228374 
